# xmcd
#
# Track frame offsets: 
#        150
#        22140
#        39539
#        62259
#        83976
#        108971
#        132714
#        149685
#        170777
#        191465
#        211094
#        233914
#
# Disc length: 3383 seconds
#
# Revision: 2
# Processed by: cddbd v1.5.2PL0 Copyright (c) Steve Scherf et al.
# Submitted via: ExactAudioCopy v0.99pb5
#
DISCID=ae0d350c
DTITLE=Emmylou Harris - Red Dirt Girl
DYEAR=2204
DGENRE=
TTITLE0=Bang the Drum Slowly
TTITLE1=Boy from Tupelo
TTITLE2=Hour of Gold
TTITLE3=I Don't Want to Talk About It Now
TTITLE4=J'ai Fait Tout
TTITLE5=Michelangelo
TTITLE6=My Antonia
TTITLE7=My Baby Needs a Shepherd
TTITLE8=One Big Love
TTITLE9=Red Dirt Girl
TTITLE10=The Pearl
TTITLE11=Tragedy
EXTD=
EXTT0=
EXTT1=
EXTT2=
EXTT3=
EXTT4=
EXTT5=
EXTT6=
EXTT7=
EXTT8=
EXTT9=
EXTT10=
EXTT11=
PLAYORDER=
